# xmcd CD database file
#
# Track frame offsets:
#	150
#	24241
#	46951
#	80511
#	92499
#	114152
#	140934
#	156696
#	176443
#	194460
#	210445
#
# Disc length: 3118 seconds
#
# Revision: 0
# Processed by: cddbd v1.5.2PL0 Copyright (c) Steve Scherf et al.
# Submitted via: CDex 1.51
#
DISCID=8f0c2c0b
DTITLE=Maarten Ornstein,  Tony Overwater,  Wim Kegel - jungle boldie
DYEAR=2010
DGENRE=Jazz
TTITLE0=Dancing the waves
TTITLE1=Bouzouki wars
TTITLE2=Parallels
TTITLE3=Rosemary's baby
TTITLE4=Transit
TTITLE5=Beirut
TTITLE6=St. James infirmary
TTITLE7=Up and down
TTITLE8=Quicksie
TTITLE9=Compliments
TTITLE10=Teardrops for Jimmy
EXTD=YEAR: 2010
EXTT0=
EXTT1=
EXTT2=
EXTT3=
EXTT4=
EXTT5=
EXTT6=
EXTT7=
EXTT8=
EXTT9=
EXTT10=
PLAYORDER=
